<?xml version="1.0" standalone="no"?>
<!DOCTYPE svg PUBLIC "-//W3C//DTD SVG 20010904//EN"
 "http://www.w3.org/TR/2001/REC-SVG-20010904/DTD/svg10.dtd">
<svg version="1.0" xmlns="http://www.w3.org/2000/svg"
 width="1080.000000pt" height="1080.000000pt" viewBox="0 0 1080.000000 1080.000000"
 preserveAspectRatio="xMidYMid meet">
<metadata>
Created by potrace 1.14, written by Peter Selinger 2001-2017
</metadata>
<g transform="translate(0.000000,1080.000000) scale(0.100000,-0.100000)"
fill="#000000" stroke="none">
<path d="M5238 9781 c-76 -24 -140 -67 -210 -138 -190 -195 -316 -465 -622
-1338 -199 -566 -365 -986 -519 -1317 l-46 -97 27 -3 27 -4 -27 -14 c-19 -9
-28 -21 -28 -37 0 -15 -8 -27 -23 -34 -12 -6 -35 -29 -49 -52 -32 -51 -108
-235 -138 -337 -13 -41 -29 -95 -36 -118 -12 -38 -12 -43 1 -38 11 4 15 -2 15
-23 0 -23 -4 -28 -17 -25 -19 5 -44 -51 -118 -265 -20 -58 -52 -135 -71 -172
-18 -37 -30 -70 -25 -74 5 -3 12 1 14 7 4 9 6 9 6 1 1 -6 -12 -22 -28 -35 -47
-40 -198 -480 -306 -888 -66 -249 -87 -317 -161 -507 -176 -453 -273 -763
-329 -1063 -20 -109 -37 -321 -29 -372 18 -111 148 -196 387 -254 56 -13 126
-34 155 -46 l53 -21 72 22 c81 24 124 26 161 10 21 -10 34 -8 76 10 58 25 201
45 211 30 7 -12 21 6 38 47 23 58 103 114 165 114 15 0 25 7 29 20 3 11 11 20
19 20 10 0 12 15 10 63 -4 79 10 120 82 229 43 67 81 108 159 175 161 138 208
190 249 273 20 41 86 177 146 302 155 321 321 592 445 726 34 37 71 83 81 102
11 19 70 105 131 190 62 85 124 173 139 195 14 23 56 68 94 101 40 36 79 83
96 115 16 30 57 99 91 154 61 97 165 297 179 343 4 12 3 22 -2 22 -6 0 -13
-12 -17 -27 l-7 -28 -9 23 c-12 31 -30 24 -44 -17 l-11 -33 -12 26 c-18 39
-15 62 11 92 l23 26 55 -31 56 -31 16 51 c10 28 17 61 17 73 0 13 20 44 45 71
24 27 59 76 76 109 48 91 105 172 160 227 36 37 49 57 49 79 0 59 37 100 90
100 14 0 18 -5 13 -17 -3 -10 20 7 51 37 31 30 56 55 56 57 0 1 -7 0 -16 -4
-12 -4 -9 6 11 38 50 79 75 99 75 57 0 -37 13 -11 21 43 5 29 14 57 20 63 9 8
10 6 5 -8 -10 -30 18 -2 51 50 20 31 35 44 51 44 15 0 22 6 22 19 0 30 128
142 224 195 49 26 130 84 182 127 61 52 98 77 108 73 9 -3 16 -8 16 -10 0 -3
-79 -156 -176 -342 -233 -446 -321 -603 -688 -1235 -115 -199 -221 -397 -354
-662 -99 -198 -232 -491 -232 -510 0 -5 -17 -33 -37 -64 -43 -64 -172 -338
-202 -428 -22 -66 -28 -143 -11 -143 20 0 10 -21 -14 -30 -32 -12 -47 -35 -95
-152 -27 -64 -41 -113 -41 -141 0 -24 -18 -99 -40 -167 -95 -288 -206 -731
-245 -975 -22 -135 -32 -577 -16 -711 34 -289 129 -617 202 -695 24 -26 35
-30 62 -26 46 7 70 -8 56 -35 -9 -16 -8 -23 2 -29 16 -11 306 -5 418 8 56 6
77 13 85 27 21 37 45 56 62 49 15 -5 14 -8 -6 -15 -13 -5 -20 -11 -16 -15 8
-8 105 35 134 61 l22 19 0 -25 c0 -15 -9 -32 -22 -41 -15 -10 -18 -16 -9 -16
8 -1 35 21 60 48 50 53 78 71 112 71 20 0 21 4 17 58 l-4 57 108 89 c59 49
169 148 244 220 132 126 137 132 123 154 -12 19 -12 26 1 50 11 18 24 27 41
28 40 0 49 12 49 65 0 49 13 66 25 30 5 -15 17 -7 74 53 l69 71 -6 55 c-6 61
-20 78 -89 107 -24 10 -43 24 -43 31 0 10 -5 10 -20 2 -23 -12 -25 -7 -10 21
17 31 -2 22 -60 -31 -46 -41 -51 -49 -33 -50 16 0 29 -13 47 -50 l25 -50 -37
0 c-52 0 -66 12 -58 46 l7 27 -33 -25 c-62 -46 -193 -135 -274 -186 -76 -47
-83 -50 -97 -34 -13 15 -13 19 -1 30 11 10 13 25 8 57 -5 37 -3 46 15 61 24
21 28 36 6 28 -13 -5 -15 9 -15 94 l0 100 -47 56 c-36 43 -50 53 -60 44 -7 -6
-13 -16 -13 -23 0 -7 -6 -18 -14 -24 -23 -19 -29 5 -10 38 16 27 16 31 1 64
-11 21 -14 43 -10 54 5 11 89 124 188 252 142 184 182 229 190 217 5 -8 15
-23 21 -33 10 -17 15 -14 61 28 27 26 60 50 74 54 l24 8 -23 8 c-33 12 -29 41
6 37 26 -3 27 -6 32 -68 5 -63 5 -64 19 -35 35 79 53 139 43 143 -8 2 -8 9 1
23 9 14 9 26 0 50 -11 28 -10 31 6 26 15 -4 23 16 55 137 21 77 49 166 64 196
14 30 26 64 28 75 3 29 69 207 100 268 15 28 41 70 59 92 48 60 64 96 85 197
21 95 64 186 96 203 13 7 18 19 16 37 -2 17 15 61 47 123 52 98 60 132 39 153
-10 10 -5 20 27 46 34 29 38 36 26 49 -11 14 -9 21 12 49 41 54 89 185 95 260
2 37 8 65 12 63 5 -3 13 19 20 48 6 28 14 61 16 72 5 20 5 20 -10 1 -9 -11
-16 -28 -16 -38 0 -10 -4 -18 -10 -18 -11 0 -12 121 -1 160 l7 25 8 -22 c4
-13 12 -23 17 -23 5 0 3 14 -6 30 -12 22 -23 30 -44 30 -30 0 -77 42 -66 59 9
16 31 13 75 -9 45 -23 52 -11 15 26 -15 15 -25 36 -25 54 l0 30 -72 0 -73 0
32 20 c44 26 55 50 39 81 -7 13 -25 46 -40 73 -30 56 -33 104 -11 166 8 23 15
64 15 90 0 35 5 52 20 65 60 54 316 578 396 809 32 92 54 214 54 295 0 81 -14
111 -28 60 l-9 -34 -12 28 c-6 16 -11 51 -11 79 0 28 -8 76 -17 106 l-17 54
27 20 c23 17 25 22 13 34 -8 7 -33 71 -56 141 -24 71 -49 136 -58 145 -8 10
-31 21 -51 24 -20 4 -42 11 -48 16 -21 17 -246 -99 -335 -173 -43 -35 -115
-88 -161 -117 -195 -124 -528 -446 -798 -772 -236 -286 -432 -533 -416 -527
20 8 21 -1 3 -25 -16 -22 -40 -24 -32 -3 3 8 1 15 -4 15 -6 0 -10 -6 -10 -14
0 -8 -50 -78 -111 -156 -87 -110 -109 -144 -98 -151 8 -5 20 -9 27 -9 25 0 11
-27 -25 -44 -27 -13 -38 -14 -43 -5 -4 6 -12 9 -16 6 -5 -3 -70 -82 -144 -176
-74 -93 -141 -170 -149 -171 -7 0 -11 6 -8 13 60 139 129 343 194 567 2 8 -3
2 -13 -15 -9 -16 -22 -33 -28 -37 -13 -9 -56 -11 -56 -3 0 3 19 42 41 88 34
66 79 178 79 194 0 1 -13 3 -30 3 -33 0 -38 17 -20 65 5 14 14 49 19 78 14 74
46 189 59 212 6 11 34 70 61 130 71 158 160 329 175 337 8 4 11 18 8 33 -3 16
0 25 8 25 15 0 145 138 181 192 21 32 28 57 34 125 10 126 46 271 104 420 137
355 172 597 123 848 -12 61 -22 134 -22 164 0 62 -7 78 -112 285 -83 165 -218
357 -322 458 -77 76 -177 143 -248 168 -75 26 -209 26 -290 1z m2279 -4729
c-10 -10 -17 -35 -17 -55 0 -26 -4 -37 -15 -37 -22 0 -19 43 6 92 15 29 24 37
32 29 8 -8 6 -16 -6 -29z m-963 -2139 c6 -18 3 -23 -11 -23 -16 0 -18 6 -15
36 5 37 12 33 26 -13z m-434 -737 c0 -24 -2 -24 -32 -14 -41 14 -42 14 -33 27
3 6 19 11 36 11 24 0 29 -4 29 -24z m50 -74 c0 -16 -78 -84 -89 -78 -17 11
-13 44 7 65 17 19 82 29 82 13z m498 -264 c2 -8 -9 -30 -24 -47 -21 -25 -29
-29 -41 -20 -12 10 -10 16 12 39 14 14 25 32 25 39 0 17 24 8 28 -11z"/>
<path d="M5560 6230 c-15 -28 -50 -130 -50 -144 1 -6 17 27 36 73 19 46 33 85
30 88 -2 3 -10 -5 -16 -17z"/>
<path d="M5496 6055 c-9 -26 -7 -32 5 -12 6 10 9 21 6 23 -2 3 -7 -2 -11 -11z"/>
<path d="M5600 5814 c0 -14 3 -14 15 -4 8 7 15 14 15 16 0 2 -7 4 -15 4 -8 0
-15 -7 -15 -16z"/>
<path d="M5158 3204 c-5 -4 -8 -23 -8 -43 0 -25 3 -32 11 -24 6 6 9 25 7 43
-2 17 -6 28 -10 24z"/>
<path d="M7483 2816 c-51 -65 -123 -126 -218 -186 -38 -24 -72 -45 -74 -47 -2
-1 2 -10 9 -18 12 -14 18 -11 55 25 22 22 45 40 51 40 6 0 21 -23 34 -50 l24
-51 27 28 c43 44 98 141 120 215 30 97 22 109 -28 44z"/>
<path d="M3351 2518 c-19 -5 -30 -13 -24 -16 5 -4 12 -13 14 -20 3 -10 11 -8
32 8 15 12 27 26 27 31 0 11 -4 10 -49 -3z"/>
<path d="M6983 2376 c-40 -38 -73 -77 -73 -87 0 -26 7 -24 47 11 24 22 40 29
57 24 33 -8 48 16 44 72 l-3 49 -72 -69z"/>
<path d="M7092 2398 c-14 -14 -16 -54 -3 -62 4 -3 16 3 26 14 15 16 15 21 3
39 -11 16 -17 18 -26 9z"/>
</g>
</svg>
